<?xml version="1.0" encoding="utf-8"?>
<!-- Generator: Adobe Illustrator 25.0.1, SVG Export Plug-In . SVG Version: 6.00 Build 0)  -->
<svg version="1.1" id="Layer_1" xmlns="http://www.w3.org/2000/svg" xmlns:xlink="http://www.w3.org/1999/xlink" x="0px" y="0px"
	 viewBox="0 0 133.52 24.2" style="enable-background:new 0 0 133.52 24.2;" xml:space="preserve">
<style type="text/css">
	.st0{fill:#F8BC32;}
	.st1{fill:#FFFFFF;}
</style>
<g>
	<g>
		<path class="st0" d="M16.63,16.06l-0.82-4.02c-0.05-0.23-0.06-0.49-0.44-0.73l-0.83-9.7c-0.01-0.12,0.04-0.12-0.08-0.11
			c-6.6,0.58-9.4-0.78-10.71-1.48C3.59-0.06,3.4,0.06,3.41,0.24c0.03,0.43,0.31,1.07,1.8,1.52C7.77,2.55,12.07,2.16,13.99,2
			c0.11-0.01,0.06-0.01,0.07,0.11l0.86,8.95l-0.73-0.42l-1.05-7.38c-0.01-0.22-0.23-0.37-0.44-0.31C7.47,4.62,3.75,5.17,2.7,4.73
			c-0.25-0.1-0.41,0.05-0.34,0.33c0.08,0.33,0.45,0.8,1.8,0.72c1.67-0.11,7.67-2,8.43-2.24c0.07-0.02,0.13,0.06,0.13,0.13l1.04,6.74
			l-3.62-1.87c-0.3-0.16-0.66-0.2-0.99-0.11L4.03,9.79c-0.3,0.08-0.56,0.25-0.74,0.5l-3,3.94c-0.47,0.61-0.34,1.49,0.28,1.95
			l6.68,4.88c0.24,0.17,0.52,0.26,0.81,0.27l4.24,0.01c0.41,0,0.8-0.18,1.06-0.5l2.99-3.61C16.61,16.9,16.72,16.47,16.63,16.06z"/>
		<path class="st1" d="M10.95,11.23c-2.35-0.06-3.61,1.57-3.61,3.51s1.43,3.25,3.35,3.25s3.51-0.77,3.6-3.13
			C14.36,12.92,13.53,11.29,10.95,11.23z M11.69,15.95c-0.62,0-1.11-0.5-1.11-1.11c0-0.62,0.5-1.11,1.11-1.11
			c0.62,0,1.11,0.5,1.11,1.11C12.81,15.45,12.31,15.95,11.69,15.95z"/>
	</g>
	<g>
		<path class="st1" d="M34.15,4.46c0.48,0,0.94,0.07,1.38,0.21c0.44,0.14,0.85,0.34,1.22,0.59c0.39,0.27,0.73,0.58,1.03,0.94
			c0.3,0.36,0.54,0.76,0.72,1.19c0.25,0.6,0.38,1.23,0.38,1.88v6.55c0,1.03-0.28,1.94-0.83,2.71c-0.25,0.39-0.56,0.73-0.93,1.03
			s-0.77,0.54-1.2,0.72c-0.58,0.25-1.21,0.38-1.88,0.38h-6.28c-1.03,0-1.94-0.28-2.71-0.83c-0.39-0.25-0.73-0.56-1.03-0.93
			c-0.3-0.37-0.54-0.77-0.72-1.2c-0.25-0.6-0.38-1.23-0.38-1.88c0-0.49,0.07-0.97,0.22-1.42s0.35-0.88,0.61-1.27
			c0.52-0.79,1.23-1.38,2.13-1.75c0.3-0.12,0.6-0.22,0.91-0.29c0.31-0.08,0.63-0.11,0.98-0.11h8.01V9.29c0-0.33-0.1-0.64-0.29-0.94
			c-0.17-0.22-0.36-0.41-0.59-0.55c-0.23-0.14-0.49-0.21-0.77-0.21h-9.17c-0.43,0-0.8-0.15-1.11-0.46
			c-0.31-0.31-0.46-0.68-0.46-1.11s0.15-0.8,0.46-1.1c0.31-0.3,0.68-0.45,1.11-0.45H34.15z M27.76,14.13c-0.36,0-0.68,0.1-0.96,0.29
			c-0.21,0.15-0.39,0.34-0.53,0.58c-0.14,0.24-0.21,0.49-0.21,0.76c0,0.43,0.1,0.78,0.29,1.03c0.16,0.22,0.36,0.41,0.58,0.55
			c0.22,0.14,0.48,0.21,0.76,0.21h6.35c0.36,0,0.68-0.1,0.95-0.29c0.28-0.19,0.47-0.41,0.59-0.65s0.18-0.5,0.18-0.79v-1.7H27.76z"/>
		<path class="st1" d="M56.1,19.13v-6.55c0-0.52-0.07-1.02-0.22-1.49s-0.36-0.91-0.63-1.31c-0.55-0.82-1.29-1.43-2.2-1.82
			c-0.3-0.12-0.61-0.22-0.94-0.29c-0.33-0.07-0.67-0.11-1.01-0.11h-5.02v11.57c0,0.43-0.15,0.8-0.46,1.11
			c-0.31,0.31-0.68,0.46-1.11,0.46s-0.8-0.15-1.1-0.46c-0.3-0.31-0.45-0.68-0.45-1.11V6.01c0-0.45,0.15-0.82,0.45-1.12
			c0.3-0.3,0.67-0.45,1.1-0.45h6.59c0.85,0,1.66,0.12,2.42,0.37C54.29,5.06,55,5.4,55.66,5.83c0.66,0.43,1.24,0.95,1.74,1.56
			s0.91,1.28,1.22,2.03c0.42,1,0.63,2.06,0.63,3.16v6.55c0,0.43-0.15,0.8-0.46,1.11c-0.31,0.31-0.68,0.46-1.11,0.46
			s-0.8-0.15-1.11-0.46C56.26,19.93,56.1,19.56,56.1,19.13z"/>
		<path class="st1" d="M74.18,4.49c0.43,0,0.8,0.15,1.11,0.46c0.31,0.31,0.46,0.68,0.46,1.11s-0.15,0.8-0.46,1.11
			c-0.31,0.31-0.68,0.46-1.11,0.46h-5v11.53c0,0.43-0.15,0.8-0.45,1.1c-0.3,0.3-0.67,0.45-1.1,0.45s-0.8-0.15-1.11-0.45
			c-0.31-0.3-0.46-0.67-0.46-1.1V7.63h-5c-0.43,0-0.8-0.15-1.1-0.46c-0.3-0.31-0.45-0.68-0.45-1.11s0.15-0.8,0.45-1.11
			c0.3-0.31,0.67-0.46,1.1-0.46H74.18z"/>
		<path class="st1" d="M91.94,4.49c0.43,0,0.8,0.15,1.1,0.46c0.3,0.31,0.45,0.68,0.45,1.11v13.07c0,0.43-0.15,0.8-0.45,1.11
			c-0.3,0.31-0.67,0.46-1.1,0.46s-0.8-0.15-1.11-0.46c-0.31-0.31-0.46-0.68-0.46-1.11v-4.96h-9.46v4.96c0,0.43-0.15,0.8-0.46,1.11
			c-0.31,0.31-0.68,0.46-1.11,0.46s-0.8-0.15-1.11-0.46c-0.31-0.31-0.46-0.68-0.46-1.11V6.06c0-0.43,0.15-0.8,0.46-1.11
			c0.31-0.31,0.68-0.46,1.11-0.46s0.8,0.15,1.11,0.46c0.31,0.31,0.46,0.68,0.46,1.11v5h9.46v-5c0-0.43,0.15-0.8,0.46-1.11
			C91.14,4.64,91.51,4.49,91.94,4.49z"/>
		<path class="st1" d="M96.2,19.13V6.06c0-0.43,0.15-0.8,0.46-1.11s0.68-0.46,1.11-0.46s0.8,0.15,1.1,0.46s0.45,0.68,0.45,1.11
			v13.07c0,0.43-0.15,0.8-0.45,1.11c-0.3,0.31-0.67,0.46-1.1,0.46s-0.8-0.15-1.11-0.46C96.35,19.93,96.2,19.56,96.2,19.13z"/>
		<path class="st1" d="M104.61,19.87c-0.79-0.52-1.38-1.23-1.75-2.13c-0.25-0.6-0.38-1.23-0.38-1.88V6.03c0-0.43,0.15-0.8,0.45-1.11
			s0.67-0.46,1.1-0.46c0.43,0,0.8,0.15,1.11,0.46s0.46,0.68,0.46,1.11v9.82c0,0.33,0.1,0.65,0.29,0.96
			c0.15,0.24,0.35,0.42,0.62,0.55s0.53,0.19,0.8,0.19h7.69c0.43,0,0.8,0.15,1.11,0.46c0.31,0.31,0.46,0.68,0.46,1.11
			s-0.15,0.8-0.46,1.11c-0.31,0.31-0.68,0.46-1.11,0.46h-7.69c-0.51,0-0.99-0.07-1.43-0.22C105.42,20.33,105,20.12,104.61,19.87z"/>
		<path class="st1" d="M120.71,19.87c-0.79-0.52-1.38-1.23-1.75-2.13c-0.25-0.6-0.38-1.23-0.38-1.88V6.03c0-0.43,0.15-0.8,0.45-1.11
			s0.67-0.46,1.1-0.46c0.43,0,0.8,0.15,1.11,0.46s0.46,0.68,0.46,1.11v9.82c0,0.33,0.1,0.65,0.29,0.96
			c0.15,0.24,0.35,0.42,0.62,0.55s0.53,0.19,0.8,0.19h7.69c0.43,0,0.8,0.15,1.11,0.46c0.31,0.31,0.46,0.68,0.46,1.11
			s-0.15,0.8-0.46,1.11c-0.31,0.31-0.68,0.46-1.11,0.46h-7.69c-0.51,0-0.99-0.07-1.43-0.22C121.52,20.33,121.1,20.12,120.71,19.87z"
			/>
	</g>
</g>
</svg>
