<svg width="401" height="143" viewBox="0 0 401 143" fill="none" xmlns="http://www.w3.org/2000/svg">
<rect x="1" y="1" width="399" height="141" rx="4" fill="#F3F3F3"/>
<g clip-path="url(#clip0_808_1150)">
<path d="M209.833 38H191.167C189.399 38.0021 187.705 38.7052 186.455 39.955C185.205 41.2047 184.502 42.8992 184.5 44.6667V63.3333C184.502 65.1008 185.205 66.7953 186.455 68.045C187.705 69.2948 189.399 69.9979 191.167 70H209.833C211.601 69.9979 213.295 69.2948 214.545 68.045C215.795 66.7953 216.498 65.1008 216.5 63.3333V44.6667C216.498 42.8992 215.795 41.2047 214.545 39.955C213.295 38.7052 211.601 38.0021 209.833 38V38ZM191.167 40.6667H209.833C210.894 40.6667 211.912 41.0881 212.662 41.8382C213.412 42.5884 213.833 43.6058 213.833 44.6667V63.3333C213.831 63.9273 213.694 64.5131 213.433 65.0467L201.216 52.8293C200.597 52.2101 199.862 51.7189 199.053 51.3837C198.244 51.0486 197.377 50.8761 196.501 50.8761C195.626 50.8761 194.759 51.0486 193.95 51.3837C193.141 51.7189 192.406 52.2101 191.787 52.8293L187.167 57.448V44.6667C187.167 43.6058 187.588 42.5884 188.338 41.8382C189.088 41.0881 190.106 40.6667 191.167 40.6667ZM191.167 67.3333C190.106 67.3333 189.088 66.9119 188.338 66.1618C187.588 65.4116 187.167 64.3942 187.167 63.3333V61.2187L193.671 54.7147C194.042 54.343 194.483 54.0481 194.969 53.8469C195.454 53.6457 195.974 53.5422 196.5 53.5422C197.026 53.5422 197.546 53.6457 198.031 53.8469C198.517 54.0481 198.958 54.343 199.329 54.7147L211.547 66.9333C211.013 67.1943 210.427 67.331 209.833 67.3333H191.167Z" fill="#AEAEAE"/>
<path d="M205.833 52C206.756 52 207.659 51.7263 208.426 51.2135C209.193 50.7007 209.792 49.9719 210.145 49.1192C210.498 48.2665 210.59 47.3281 210.41 46.4229C210.23 45.5177 209.786 44.6861 209.133 44.0335C208.48 43.3808 207.649 42.9364 206.744 42.7563C205.838 42.5763 204.9 42.6687 204.047 43.0219C203.195 43.3751 202.466 43.9732 201.953 44.7407C201.44 45.5081 201.167 46.4103 201.167 47.3333C201.167 48.571 201.658 49.758 202.533 50.6332C203.409 51.5083 204.596 52 205.833 52ZM205.833 45.3333C206.229 45.3333 206.616 45.4506 206.944 45.6704C207.273 45.8901 207.53 46.2025 207.681 46.568C207.832 46.9334 207.872 47.3355 207.795 47.7235C207.718 48.1115 207.527 48.4678 207.248 48.7475C206.968 49.0272 206.611 49.2177 206.223 49.2949C205.836 49.3721 205.433 49.3325 205.068 49.1811C204.702 49.0297 204.39 48.7734 204.17 48.4445C203.951 48.1156 203.833 47.7289 203.833 47.3333C203.833 46.8029 204.044 46.2942 204.419 45.9191C204.794 45.544 205.303 45.3333 205.833 45.3333Z" fill="#AEAEAE"/>
</g>
<path d="M156.176 102H157.856L158.832 99.2H163.92L164.896 102H166.576L162.304 90.08H160.448L156.176 102ZM159.328 97.76L161.376 91.856L163.424 97.76H159.328ZM170.922 102.096C171.039 102.096 171.183 102.085 171.354 102.064C171.524 102.053 171.679 102.032 171.818 102V100.688C171.722 100.699 171.62 100.709 171.514 100.72C171.407 100.731 171.311 100.736 171.226 100.736C170.703 100.736 170.33 100.608 170.106 100.352C169.892 100.085 169.786 99.7333 169.786 99.296V94.8H171.722V93.376H169.786V91.392H168.298V92.096C168.298 92.4907 168.186 92.8053 167.962 93.04C167.738 93.264 167.434 93.376 167.05 93.376H166.73V94.8H168.298V99.344C168.298 100.219 168.522 100.896 168.97 101.376C169.428 101.856 170.079 102.096 170.922 102.096ZM177.265 102.096C177.383 102.096 177.527 102.085 177.697 102.064C177.868 102.053 178.023 102.032 178.161 102V100.688C178.065 100.699 177.964 100.709 177.857 100.72C177.751 100.731 177.655 100.736 177.569 100.736C177.047 100.736 176.673 100.608 176.449 100.352C176.236 100.085 176.129 99.7333 176.129 99.296V94.8H178.065V93.376H176.129V91.392H174.641V92.096C174.641 92.4907 174.529 92.8053 174.305 93.04C174.081 93.264 173.777 93.376 173.393 93.376H173.073V94.8H174.641V99.344C174.641 100.219 174.865 100.896 175.313 101.376C175.772 101.856 176.423 102.096 177.265 102.096ZM182.508 102.192C183.137 102.192 183.703 102.075 184.204 101.84C184.705 101.595 185.111 101.275 185.42 100.88V102H186.876V96.144C186.876 95.5573 186.732 95.0453 186.444 94.608C186.167 94.16 185.777 93.8133 185.276 93.568C184.775 93.312 184.193 93.184 183.532 93.184C183.02 93.184 182.529 93.2747 182.06 93.456C181.591 93.6373 181.18 93.888 180.828 94.208C180.476 94.5173 180.22 94.8693 180.06 95.264L181.356 95.936C181.537 95.5307 181.815 95.2 182.188 94.944C182.561 94.688 182.999 94.56 183.5 94.56C184.065 94.56 184.519 94.7093 184.86 95.008C185.212 95.296 185.388 95.6747 185.388 96.144V96.544L182.444 97.024C181.473 97.184 180.759 97.5093 180.3 98C179.852 98.48 179.628 99.0613 179.628 99.744C179.628 100.469 179.895 101.061 180.428 101.52C180.972 101.968 181.665 102.192 182.508 102.192ZM181.196 99.696C181.196 99.3227 181.319 99.008 181.564 98.752C181.82 98.496 182.225 98.32 182.78 98.224L185.388 97.792V98.336C185.388 98.816 185.276 99.2533 185.052 99.648C184.828 100.043 184.513 100.357 184.108 100.592C183.703 100.816 183.228 100.928 182.684 100.928C182.257 100.928 181.9 100.811 181.612 100.576C181.335 100.341 181.196 100.048 181.196 99.696ZM193.183 102.192C193.749 102.192 194.277 102.091 194.767 101.888C195.269 101.685 195.701 101.408 196.063 101.056C196.426 100.704 196.698 100.309 196.879 99.872L195.551 99.2C195.349 99.6693 195.039 100.048 194.623 100.336C194.218 100.613 193.738 100.752 193.183 100.752C192.661 100.752 192.186 100.619 191.759 100.352C191.343 100.085 191.013 99.7227 190.767 99.264C190.522 98.7947 190.399 98.272 190.399 97.696C190.399 97.0987 190.522 96.5707 190.767 96.112C191.013 95.6533 191.343 95.2907 191.759 95.024C192.186 94.7573 192.661 94.624 193.183 94.624C193.727 94.624 194.207 94.768 194.623 95.056C195.039 95.3333 195.349 95.696 195.551 96.144L196.879 95.504C196.698 95.056 196.421 94.656 196.047 94.304C195.685 93.952 195.258 93.68 194.767 93.488C194.277 93.2853 193.749 93.184 193.183 93.184C192.341 93.184 191.589 93.3813 190.927 93.776C190.277 94.16 189.765 94.6933 189.391 95.376C189.018 96.048 188.831 96.816 188.831 97.68C188.831 98.5333 189.018 99.3013 189.391 99.984C189.765 100.667 190.277 101.205 190.927 101.6C191.589 101.995 192.341 102.192 193.183 102.192ZM198.824 102H200.312V96.896C200.312 96.192 200.509 95.6373 200.904 95.232C201.309 94.8267 201.811 94.624 202.408 94.624C203.005 94.624 203.496 94.8267 203.88 95.232C204.275 95.6267 204.472 96.1813 204.472 96.896V102H205.976V96.416C205.976 95.7973 205.832 95.248 205.544 94.768C205.267 94.2773 204.883 93.8933 204.392 93.616C203.912 93.328 203.363 93.184 202.744 93.184C202.221 93.184 201.747 93.2907 201.32 93.504C200.904 93.7067 200.568 94 200.312 94.384V89.888H198.824V102ZM213.399 102.192C214.028 102.192 214.593 102.075 215.095 101.84C215.596 101.595 216.001 101.275 216.311 100.88V102H217.767V96.144C217.767 95.5573 217.623 95.0453 217.335 94.608C217.057 94.16 216.668 93.8133 216.167 93.568C215.665 93.312 215.084 93.184 214.423 93.184C213.911 93.184 213.42 93.2747 212.951 93.456C212.481 93.6373 212.071 93.888 211.719 94.208C211.367 94.5173 211.111 94.8693 210.951 95.264L212.247 95.936C212.428 95.5307 212.705 95.2 213.079 94.944C213.452 94.688 213.889 94.56 214.391 94.56C214.956 94.56 215.409 94.7093 215.751 95.008C216.103 95.296 216.279 95.6747 216.279 96.144V96.544L213.335 97.024C212.364 97.184 211.649 97.5093 211.191 98C210.743 98.48 210.519 99.0613 210.519 99.744C210.519 100.469 210.785 101.061 211.319 101.52C211.863 101.968 212.556 102.192 213.399 102.192ZM212.087 99.696C212.087 99.3227 212.209 99.008 212.455 98.752C212.711 98.496 213.116 98.32 213.671 98.224L216.279 97.792V98.336C216.279 98.816 216.167 99.2533 215.943 99.648C215.719 100.043 215.404 100.357 214.999 100.592C214.593 100.816 214.119 100.928 213.575 100.928C213.148 100.928 212.791 100.811 212.503 100.576C212.225 100.341 212.087 100.048 212.087 99.696ZM223.752 102H225.256V94.8H228.808V102H230.296V93.376H225.256V92.768C225.256 92.2133 225.41 91.824 225.72 91.6C226.04 91.3653 226.445 91.248 226.936 91.248C227 91.248 227.09 91.2533 227.208 91.264C227.336 91.264 227.437 91.2747 227.512 91.296V89.968C227.416 89.9467 227.293 89.9307 227.144 89.92C227.005 89.8987 226.877 89.888 226.76 89.888C226.205 89.888 225.698 90 225.24 90.224C224.792 90.448 224.429 90.7733 224.152 91.2C223.885 91.6267 223.752 92.1493 223.752 92.768V93.376H222.104V94.8H223.752V102ZM232.371 102H233.859V89.888H232.371V102ZM240.136 102.192C241.021 102.192 241.789 101.984 242.44 101.568C243.09 101.152 243.549 100.645 243.816 100.048L242.568 99.408C242.322 99.824 242.002 100.165 241.608 100.432C241.213 100.699 240.728 100.832 240.152 100.832C239.672 100.832 239.224 100.725 238.808 100.512C238.402 100.288 238.066 99.9733 237.8 99.568C237.544 99.1627 237.405 98.6827 237.384 98.128H243.976C244.029 97.84 244.056 97.5733 244.056 97.328C244.056 96.6133 243.896 95.9413 243.576 95.312C243.256 94.6827 242.792 94.1707 242.184 93.776C241.586 93.3813 240.861 93.184 240.008 93.184C239.208 93.184 238.493 93.376 237.864 93.76C237.234 94.144 236.733 94.6773 236.36 95.36C235.997 96.032 235.816 96.8 235.816 97.664C235.816 98.528 236.002 99.3013 236.376 99.984C236.749 100.667 237.261 101.205 237.912 101.6C238.562 101.995 239.304 102.192 240.136 102.192ZM240.008 94.512C240.445 94.512 240.845 94.6133 241.208 94.816C241.57 95.008 241.864 95.28 242.088 95.632C242.312 95.984 242.429 96.3893 242.44 96.848H237.416C237.522 96.1227 237.821 95.552 238.312 95.136C238.802 94.72 239.368 94.512 240.008 94.512Z" fill="#999999"/>
<rect x="1" y="1" width="399" height="141" rx="4" stroke="#AEAEAE" stroke-width="2" stroke-dasharray="14 14"/>
<defs>
<clipPath id="clip0_808_1150">
<rect width="32" height="32" fill="white" transform="translate(184.5 38)"/>
</clipPath>
</defs>
</svg>
